<svg version="1.1" xmlns="http://www.w3.org/2000/svg" viewBox="-215.0399963378906 -1537.9200393676758 7470.657873235196 2335.488088989258"><desc>Created with Snap</desc><defs></defs><g><rect x="-215.0399963378906" y="-1537.9200393676758" width="7470.657873235196" height="2335.488088989258" fill="#20a4f3" style=""></rect><g transform="matrix(27.5362,0,0,27.5362,5158.5618,-1280.2128)"><g><g><path d="M11.1,14.6c0.1-0.4,0.6-1.6,1.5-1.9c1.2-0.4,2,0.9,2.9,0.6c0.9-0.3,1.9-4.6,4.7-2.9c0.4,0.3,1,0.2,1.3-0.3    c0.9-1.4-1.9-2.4-3.6-1.9c-1.5,0.5-2.5,1.8-3.1,2.8c-2.6-1.2-4.8,0.4-5.5,3C9,15.3,10.8,15.8,11.1,14.6z" fill="#292929" style=""></path></g><g><path d="M34.8,58.4c3.8,0,7-3.1,7-7c0-3.8-3.1-7-7-7c-3.8,0-7,3.1-7,7C27.8,55.2,30.9,58.4,34.8,58.4z M34.8,46.4c2.8,0,5,2.3,5,5    c0,2.8-2.3,5-5,5c-2.8,0-5-2.3-5-5C29.7,48.6,32,46.4,34.8,46.4z" fill="#292929" style=""></path></g><g><path d="M34.5,43H35c0.5,0,1-0.4,1-1c0-0.5-0.4-1-1-1h-0.5c-0.5,0-1,0.4-1,1C33.6,42.6,34,43,34.5,43z" fill="#292929" style=""></path></g><g><path d="M26.4,47.3c-0.5-0.2-1,0.1-1.2,0.6L25,48.3c-0.2,0.5,0.1,1,0.6,1.2c0.1,0,0.2,0,0.3,0c0.4,0,0.8-0.3,0.9-0.7l0.1-0.5    C27.2,48,26.9,47.4,26.4,47.3z" fill="#292929" style=""></path></g><g><path d="M29.7,57.8c-0.4-0.3-1-0.2-1.3,0.2c-0.3,0.4-0.2,1,0.2,1.3l0.4,0.3c0.2,0.1,0.4,0.2,0.6,0.2c0.3,0,0.6-0.1,0.8-0.4    c0.3-0.4,0.2-1-0.2-1.3L29.7,57.8z" fill="#292929" style=""></path></g><g><path d="M39.8,57.8l-0.4,0.3c-0.4,0.3-0.5,0.9-0.2,1.3c0.2,0.3,0.5,0.4,0.8,0.4c0.2,0,0.4-0.1,0.6-0.2l0.4-0.3    c0.4-0.3,0.5-0.9,0.2-1.3C40.9,57.6,40.3,57.5,39.8,57.8z" fill="#292929" style=""></path></g><g><path d="M42.7,48.9c0.1,0.4,0.5,0.7,0.9,0.7c0.1,0,0.2,0,0.3,0c0.5-0.2,0.8-0.7,0.6-1.2l-0.1-0.5c-0.2-0.5-0.7-0.8-1.2-0.6    c-0.5,0.2-0.8,0.7-0.6,1.2L42.7,48.9z" fill="#292929" style=""></path></g><g><path d="M32.4,54.8c0.3,0.2,0.6,0.2,0.9,0l5.1-2.6c0.3-0.2,0.5-0.5,0.5-0.8c0-0.4-0.2-0.7-0.5-0.8L33.3,48c-0.3-0.2-0.6-0.1-0.9,0    c-0.3,0.2-0.5,0.5-0.5,0.8V54C31.9,54.3,32.1,54.6,32.4,54.8z M33.8,50.4l2,1l-2,1V50.4z" fill="#292929" style=""></path></g><g><path d="M64,62.4h-3.6v-10H64c0.5,0,1-0.4,1-1c0-0.5-0.4-1-1-1H47.9C47.5,43.5,41.8,38,34.8,38c-1.2,0-2.3,0.2-3.3,0.4l2-20.2    c0.9-0.3,1.7-1,2.2-1.9c0.7-1.2,0.7-2.6,0.1-3.8c0.2-0.9,0-2.4-0.5-3.5c-0.5-1.1-1.2-1.8-2-2.1c-0.2-0.2-0.4-0.5-0.6-0.7    c-0.4-1.6-1.6-2.8-3.3-3.1c-1.4-0.3-2.9,0.2-3.8,1.2c-0.3-0.2-0.7-0.3-1.1-0.3c-0.7-1-1.7-1.7-2.9-1.8c-1-0.2-2.1,0.1-2.9,0.7    c-1.1-0.9-2.5-1.1-3.8-0.7c-1.5-0.7-3.3-0.5-4.6,0.7c-1,0.9-1.5,2.2-1.3,3.5c-0.6,0-1.1,0.2-1.7,0.5C6,6.6,4.8,7,3.8,7.9    c-0.9,0.8-1.4,2-1.4,3.2c-2.5,2.1-1.6,6.1,1.3,7.1l2.7,27.5c0,0.5,0.5,0.9,0.9,0.9h4.1c0,0,0,0,0,0c0,0,0,0,0,0h5.1c0,0,0,0,0,0h4    c0,0,0,0,0,0h1.9c-0.5,1.4-0.8,3-0.8,4.6c0,7.2,5.9,13.1,13.1,13.1c3.6,0,20.5,0,29.3,0c0.5,0,1-0.4,1-1    C65,62.8,64.6,62.4,64,62.4z M58.6,62.4h-6.7v-10h6.7V62.4z M29.5,39.2c-0.5,0.2-1.6,0.8-2.3,1.3l0.5-5.4c0.8-1,1.2-2.2,1.2-3.5    c0-0.9-0.2-1.8-0.6-2.5l1-10.5h2.2L29.5,39.2z M19.8,39l-0.1,5.7h-2.1L17.4,39C18.1,39.1,18.9,39.1,19.8,39z M26.6,26.9    c-1.2-1.1-2.9-1.9-4.7-2.3l0.1-6.1h5.4L26.6,26.9z M18.6,24.2c-0.4,0-0.8,0-1.2,0.1c-0.1,0-0.1,0-0.2,0l-0.1-5.7h3L20,24.2    c-0.1,0-0.1,0-0.2,0C19.4,24.2,19,24.2,18.6,24.2z M15.2,18.5l0.1,6.1c-1.8,0.4-3.4,1.2-4.7,2.3l-0.8-8.4H15.2z M15.5,38.7l0.1,6    h-3.3l-0.7-7.6C12.8,37.8,14.1,38.4,15.5,38.7z M20.3,37c-4.1,0.6-10.1-1.4-10.1-5.4c0-2.8,3.1-4.8,6.5-5.4    c4.2-0.7,10.3,1.3,10.3,5.4C27,34.4,23.8,36.5,20.3,37z M4,12.3c1-0.6-0.3-1.7,1.1-3C6.5,8.1,7.2,9.2,8,8.7c1.4-1,2.3,0.3,3-0.6    c0.2-0.3,0.3-0.7,0.1-1.1c-1.1-2,1.3-4.2,3.2-3c0.3,0.2,0.6,0.2,0.9,0.1c0.9-0.4,2.1-0.1,2.7,0.7c0.4,0.5,1.1,0.5,1.5,0.1    c1.1-1.2,3-0.9,3.7,0.6c0.4,0.8,1.2,0.2,2.1,1c0.5,0.4,1.1,0.2,1.4-0.3c1.1-1.8,3.9-1.3,4.2,0.9c0,0.2,0.2,0.5,0.4,0.6    c0.7,0.5,0.6,1,1.2,1.2c0.3,0.1,0.6,0.3,0.9,0.7c0.6,0.9,0.7,2.4,0.6,2.8c-0.1,0.3-0.1,0.6,0,0.9c0.9,1.5-0.2,3.5-2,3.5L5.2,16.5    c-1.2,0-1.9-0.8-2.2-1.6C2.8,14.1,2.9,13,4,12.3z M5.7,18.5h2.2l1,10.5c-0.4,0.8-0.6,1.6-0.6,2.5c0,1.3,0.5,2.5,1.2,3.5l0.9,9.6    H8.3L5.7,18.5z M23.4,44.7h-1.8l0.1-6c1.4-0.3,2.8-0.9,3.9-1.6l-0.5,5.3C24.3,43.2,23.6,44.3,23.4,44.7z M23.6,51.1    c0-6.2,5-11.2,11.2-11.2C41,39.9,46,45,46,51.1c0,6.2-5,11.2-11.2,11.2C28.6,62.4,23.6,57.3,23.6,51.1z M47.8,52.4H50v10h-8.4    C45,60.3,47.4,56.6,47.8,52.4z" fill="#292929" style=""></path></g></g><desc>Created with Snap</desc><defs></defs></g><g><g transform="matrix(1.024,0,0,-1.024,0,0)"><path d="M90 0L90 700L505 700L505 618L185 618L185 404L452 404L452 326L185 326L185 0L90 0ZM580 257Q580 315 598 365Q616 416 648 453Q681 490 726 511Q772 532 826 532Q871 532 907 516Q944 501 971 478L971 520L1053 520L1053 126Q1053 88 1071 76Q1090 65 1112 65L1093 -5Q997 -5 977 73Q965 57 949 41Q934 26 914 14Q894 2 869 -5Q844 -12 814 -12Q765 -12 722 7Q680 26 648 61Q617 96 598 145Q580 195 580 257ZM834 68Q872 68 906 86Q940 104 963 133L963 412Q936 431 903 442Q871 454 835 454Q799 454 769 440Q739 426 717 400Q696 375 684 339Q672 303 672 260Q672 218 684 182Q696 147 718 121Q740 96 769 82Q799 68 834 68ZM1319 520L1319 433Q1347 475 1390 503Q1434 532 1494 532Q1582 532 1625 479Q1669 426 1669 339L1669 0L1579 0L1579 329Q1579 386 1553 419Q1527 453 1479 453Q1456 453 1434 444Q1412 436 1391 421Q1371 406 1353 386Q1336 366 1322 344L1322 0L1232 0L1232 520L1319 520ZM2693 0L2693 579L2506 158L2412 158L2224 579L2224 0L2134 0L2134 700L2267 700L2461 257L2652 700L2788 700L2788 0L2693 0ZM3344 260Q3344 299 3331 334Q3319 369 3296 395Q3274 421 3243 436Q3213 452 3177 452Q3098 452 3054 400Q3010 348 3010 262Q3010 223 3022 187Q3035 152 3057 125Q3080 99 3110 83Q3141 68 3177 68Q3216 68 3247 82Q3278 96 3299 121Q3321 147 3332 182Q3344 217 3344 260ZM2918 260Q2918 323 2938 373Q2958 424 2992 459Q3027 494 3074 513Q3122 532 3177 532Q3231 532 3278 513Q3326 494 3361 459Q3396 424 3416 374Q3436 324 3436 262Q3436 200 3416 149Q3397 99 3362 63Q3327 27 3279 7Q3232 -12 3177 -12Q3121 -12 3073 8Q3026 28 2991 64Q2957 100 2937 150Q2918 200 2918 260ZM3695 0L3486 496L3568 530L3745 102L3922 530L3999 496L3789 0L3695 0ZM4179 520L4179 0L4089 0L4089 520L4179 520ZM4134 609Q4108 609 4089 627Q4071 646 4071 672Q4071 701 4088 718Q4105 735 4134 735Q4160 735 4178 716Q4197 698 4197 672Q4197 643 4180 626Q4163 609 4134 609ZM4760 223L4396 223Q4405 150 4447 109Q4489 68 4558 68Q4603 68 4639 77Q4675 87 4708 102L4729 25Q4693 8 4648 -2Q4603 -12 4547 -12Q4491 -12 4446 6Q4401 25 4369 59Q4338 94 4321 144Q4304 195 4304 260Q4304 318 4321 368Q4338 418 4369 454Q4400 491 4443 511Q4486 532 4539 532Q4595 532 4637 513Q4679 494 4707 461Q4735 428 4749 384Q4763 340 4763 291Q4763 256 4760 223ZM4537 454Q4478 454 4440 414Q4403 374 4395 296L4680 296Q4680 372 4642 413Q4604 454 4537 454Z" fill="#292929" style=""></path></g></g></g></svg>